<?xml version="1.0" encoding="UTF-8"?>
<svg width="800px" height="800px" viewBox="0 0 800 800" version="1.1" xmlns="http://www.w3.org/2000/svg" xmlns:xlink="http://www.w3.org/1999/xlink">
    <g id="Logo-Conceal" fill-rule="nonzero">
        <g id="c" transform="translate(181.000000, 51.000000)">
            <polygon id="Shape" fill="#A6A6A6" points="233 639.094851 437.293851 546 437.5 596.460705 233.206149 698"></polygon>
            <path d="M231,134.476704 C231,134.476704 231.10276,75.5 231.205519,75.5 C231.308279,75.5 372.5,140.250647 372.5,140.250647 L372.294481,195 L231,134.476704 Z" id="Shape" fill="#A6A6A6"></path>
            <polygon id="Shape" fill="#A6A6A6" points="383 141.079602 437.277674 113 438 169.881841 383 196 383 141.079602"></polygon>
            <path d="M8.5,99.9134473 L225.831174,0 L437.5,103.000371 L378.199784,132.737741 L225.62527,61.9442793 C225.62527,61.9442793 188.87149,79.1281575 145.116991,100.22214 C101.362491,121.316122 63.0644348,138.5 63.0644348,138.5 L8.5,99.9134473 Z" id="Shape" fill="#A6A6A6"></path>
            <polygon id="Shape" fill="#FFFFFF" points="0.51536643 594.883403 0 109 55.7626478 145.78125 55.7626478 354.826506 55.7626478 563.97479 217.278487 638.670606 218 697.5"></polygon>
            <polygon id="Shape" fill="#FFFFFF" points="69 560.40932 137.6066 533.041562 225.064562 573.525189 378.347776 506.5 428 536.759446 225.064562 629.5"></polygon>
            <path d="M69,146.164122 C69,146.164122 218.236883,76.5 218.442443,76.5 C218.648004,76.5 218.236883,135.240458 218.236883,135.240458 L135.087683,173.679389 L135.087683,523.648855 L69.5139011,549 L69,146.164122 Z" id="Shape" fill="#FFFFFF"></path>
        </g>
    </g>
</svg>
