<?xml version="1.0" encoding="UTF-8" ?>
<!DOCTYPE svg PUBLIC "-//W3C//DTD SVG 1.1//EN" "http://www.w3.org/Graphics/SVG/1.1/DTD/svg11.dtd">
<svg width="200pt" height="200pt" viewBox="0 0 200 200" version="1.1" xmlns="http://www.w3.org/2000/svg">
<g id="#005500ff">
</g>
<g id="#003300ff">
</g>
<g id="#ffffffff">
<path fill="#ffffff" stroke="#ffffff" stroke-width="0.09375" opacity="1.00" d=" M 89.36 42.39 C 92.50 40.84 95.47 38.65 99.00 38.13 C 101.31 38.35 103.34 39.59 105.38 40.59 C 110.99 43.68 116.73 46.53 122.23 49.82 C 118.45 56.82 114.41 63.68 110.51 70.62 C 105.33 70.73 100.14 70.69 94.95 70.78 C 92.56 70.76 90.10 70.90 87.77 70.24 C 85.38 67.47 83.92 64.07 82.07 60.94 C 80.09 57.32 77.69 53.90 76.21 50.03 C 80.11 46.74 84.98 44.93 89.36 42.39 Z" />
<path fill="#ffffff" stroke="#ffffff" stroke-width="0.09375" opacity="1.00" d=" M 52.86 61.80 C 58.42 58.99 63.87 55.99 69.41 53.14 C 74.08 59.75 77.71 67.00 81.64 74.06 C 79.38 78.90 76.73 83.53 74.21 88.23 C 73.13 90.13 72.12 92.12 70.51 93.63 C 68.79 94.35 66.89 94.25 65.08 94.30 C 60.00 94.23 54.92 94.00 49.84 93.94 C 49.52 93.61 48.88 92.96 48.56 92.64 C 47.83 85.71 46.72 78.83 46.20 71.89 C 46.14 69.84 45.84 67.66 46.70 65.74 C 48.45 64.01 50.72 62.95 52.86 61.80 Z" />
<path fill="#ffffff" stroke="#ffffff" stroke-width="0.09375" opacity="1.00" d=" M 119.79 67.78 C 122.70 62.88 125.35 57.82 128.62 53.14 C 134.38 56.11 140.08 59.20 145.86 62.11 C 147.99 63.28 150.32 64.38 151.81 66.38 C 152.55 69.36 151.85 72.45 151.55 75.45 C 150.62 81.68 150.66 88.08 148.71 94.13 C 143.44 93.95 138.18 94.22 132.91 94.29 C 131.11 94.24 129.21 94.35 127.53 93.59 C 124.94 90.96 123.59 87.42 121.74 84.29 C 120.02 80.93 117.65 77.79 116.83 74.06 C 117.41 71.80 118.66 69.80 119.79 67.78 Z" />
<path fill="#ffffff" stroke="#ffffff" stroke-width="0.09375" opacity="1.00" d=" M 86.93 78.54 C 93.25 77.53 99.69 77.68 106.07 77.78 C 107.70 77.96 109.72 77.71 110.88 79.13 C 113.68 82.48 115.53 86.48 117.85 90.15 C 119.14 92.57 120.92 95.03 120.81 97.89 C 120.25 100.58 118.57 102.85 117.26 105.22 C 115.22 108.51 113.62 112.08 111.20 115.12 C 109.81 117.06 107.20 116.98 105.08 117.16 C 99.22 117.38 93.35 117.19 87.52 116.58 C 84.72 111.70 81.84 106.87 78.97 102.04 C 77.91 100.08 76.45 97.80 77.54 95.54 C 80.01 89.53 84.20 84.42 86.93 78.54 Z" />
<path fill="#ffffff" stroke="#ffffff" stroke-width="0.09375" opacity="1.00" d=" M 50.72 101.08 C 57.26 101.20 63.96 100.24 70.41 101.58 C 73.29 104.23 74.73 108.01 76.75 111.29 C 78.33 114.40 80.63 117.36 81.03 120.92 C 80.59 123.21 79.35 125.23 78.25 127.25 C 75.39 132.18 72.56 137.14 69.55 141.99 C 61.23 129.42 54.18 115.83 50.72 101.08 Z" />
<path fill="#ffffff" stroke="#ffffff" stroke-width="0.09375" opacity="1.00" d=" M 127.64 101.65 C 134.04 100.18 140.75 101.22 147.27 101.09 C 143.97 115.75 137.03 129.35 128.57 141.68 C 125.35 137.04 122.65 132.08 119.82 127.21 C 118.70 125.19 117.48 123.17 116.92 120.92 C 117.61 117.17 119.96 114.01 121.68 110.68 C 123.53 107.60 124.95 104.12 127.64 101.65 Z" />
<path fill="#ffffff" stroke="#ffffff" stroke-width="0.09375" opacity="1.00" d=" M 87.71 124.71 C 91.36 123.61 95.25 124.15 99.00 124.01 C 102.76 124.16 106.66 123.60 110.31 124.70 C 113.26 127.95 114.87 132.13 117.14 135.83 C 119.27 139.82 122.19 143.47 123.32 147.91 C 122.03 150.59 119.91 152.75 117.89 154.89 C 113.93 158.93 109.81 162.82 105.49 166.47 C 103.52 168.03 101.49 169.72 99.00 170.35 C 96.52 169.69 94.52 167.99 92.56 166.43 C 88.06 162.63 83.77 158.57 79.68 154.33 C 77.83 152.36 75.92 150.37 74.71 147.93 C 75.90 143.54 78.78 139.89 80.91 135.93 C 83.18 132.20 84.83 128.04 87.71 124.71 Z" />
</g>
</svg>
